<?xml version="1.0" encoding="utf-8" standalone="no"?>
<!DOCTYPE svg PUBLIC "-//W3C//DTD SVG 1.1//EN"
  "http://www.w3.org/Graphics/SVG/1.1/DTD/svg11.dtd">
<!-- Created with matplotlib (https://matplotlib.org/) -->
<svg height="360pt" version="1.1" viewBox="0 0 360 360" width="360pt" xmlns="http://www.w3.org/2000/svg" xmlns:xlink="http://www.w3.org/1999/xlink">
 <metadata>
  <rdf:RDF xmlns:cc="http://creativecommons.org/ns#" xmlns:dc="http://purl.org/dc/elements/1.1/" xmlns:rdf="http://www.w3.org/1999/02/22-rdf-syntax-ns#">
   <cc:Work>
    <dc:type rdf:resource="http://purl.org/dc/dcmitype/StillImage"/>
    <dc:date>2021-07-12T14:38:49.150248</dc:date>
    <dc:format>image/svg+xml</dc:format>
    <dc:creator>
     <cc:Agent>
      <dc:title>Matplotlib v3.3.4, https://matplotlib.org/</dc:title>
     </cc:Agent>
    </dc:creator>
   </cc:Work>
  </rdf:RDF>
 </metadata>
 <defs>
  <style type="text/css">*{stroke-linecap:butt;stroke-linejoin:round;}</style>
 </defs>
 <g id="figure_1">
  <g id="patch_1">
   <path d="M 0 360 
L 360 360 
L 360 0 
L 0 0 
z
" style="fill:#ffffff;"/>
  </g>
  <g id="axes_1">
   <g id="patch_2">
    <path d="M 77.985166 291.515416 
L 340.56 291.515416 
L 340.56 37.8933 
L 77.985166 37.8933 
z
" style="fill:#eaeaf2;"/>
   </g>
   <g id="matplotlib.axis_1">
    <g id="xtick_1">
     <g id="line2d_1">
      <path clip-path="url(#pb08b4712cc)" d="M 135.579251 291.515416 
L 135.579251 37.8933 
" style="fill:none;stroke:#ffffff;stroke-linecap:round;stroke-width:1.5;"/>
     </g>
     <g id="text_1">
      <!-- $\mathdefault{2000}$ -->
      <g transform="translate(119.483543 315.430921)scale(0.165 -0.165)">
       <defs>
        <path d="M 41.703125 15.453125 
L 39.90625 15.453125 
C 38.90625 8.375 38.09375 7.171875 37.703125 6.5625 
C 37.203125 5.765625 30 5.765625 28.59375 5.765625 
L 9.40625 5.765625 
C 13 9.671875 20 16.75 28.5 24.953125 
C 34.59375 30.734375 41.703125 37.53125 41.703125 47.421875 
C 41.703125 59.21875 32.296875 66 21.796875 66 
C 10.796875 66 4.09375 56.3125 4.09375 47.34375 
C 4.09375 43.4375 7 42.9375 8.203125 42.9375 
C 9.203125 42.9375 12.203125 43.546875 12.203125 47.03125 
C 12.203125 50.109375 9.59375 51 8.203125 51 
C 7.59375 51 7 50.90625 6.59375 50.703125 
C 8.5 59.21875 14.296875 63.40625 20.40625 63.40625 
C 29.09375 63.40625 34.796875 56.515625 34.796875 47.421875 
C 34.796875 38.734375 29.703125 31.25 24 24.75 
L 4.09375 2.28125 
L 4.09375 0 
L 39.296875 0 
z
" id="CMR17-50"/>
        <path d="M 42 31.640625 
C 42 37.75 41.90625 48.125 37.703125 56.109375 
C 34 63.109375 28.09375 65.59375 22.90625 65.59375 
C 18.09375 65.59375 12 63.40625 8.203125 56.203125 
C 4.203125 48.71875 3.796875 39.4375 3.796875 31.640625 
C 3.796875 25.953125 3.90625 17.28125 7 9.671875 
C 11.296875 -0.609375 19 -2 22.90625 -2 
C 27.5 -2 34.5 -0.109375 38.59375 9.375 
C 41.59375 16.28125 42 24.359375 42 31.640625 
z
M 22.90625 -0.40625 
C 16.5 -0.40625 12.703125 5.078125 11.296875 12.6875 
C 10.203125 18.5625 10.203125 27.15625 10.203125 32.75 
C 10.203125 40.4375 10.203125 46.828125 11.5 52.921875 
C 13.40625 61.390625 19 64 22.90625 64 
C 27 64 32.296875 61.296875 34.203125 53.125 
C 35.5 47.4375 35.59375 40.734375 35.59375 32.75 
C 35.59375 26.25 35.59375 18.265625 34.40625 12.375 
C 32.296875 1.484375 26.40625 -0.40625 22.90625 -0.40625 
z
" id="CMR17-48"/>
       </defs>
       <use transform="scale(0.996264)" xlink:href="#CMR17-50"/>
       <use transform="translate(45.690477 0)scale(0.996264)" xlink:href="#CMR17-48"/>
       <use transform="translate(91.380954 0)scale(0.996264)" xlink:href="#CMR17-48"/>
       <use transform="translate(137.071431 0)scale(0.996264)" xlink:href="#CMR17-48"/>
      </g>
     </g>
    </g>
    <g id="xtick_2">
     <g id="line2d_2">
      <path clip-path="url(#pb08b4712cc)" d="M 193.230987 291.515416 
L 193.230987 37.8933 
" style="fill:none;stroke:#ffffff;stroke-linecap:round;stroke-width:1.5;"/>
     </g>
     <g id="text_2">
      <!-- $\mathdefault{4000}$ -->
      <g transform="translate(177.135279 315.430921)scale(0.165 -0.165)">
       <defs>
        <path d="M 33.59375 64.40625 
C 33.59375 66.5 33.5 66.5 31.703125 66.5 
L 2 19.59375 
L 2 17 
L 27.796875 17 
L 27.796875 7.140625 
C 27.796875 3.5 27.59375 2.5 20.59375 2.5 
L 18.703125 2.5 
L 18.703125 0 
C 21.90625 0 27.296875 0 30.703125 0 
C 34.09375 0 39.5 0 42.703125 0 
L 42.703125 2.5 
L 40.796875 2.5 
C 33.796875 2.5 33.59375 3.5 33.59375 7.140625 
L 33.59375 17 
L 43.796875 17 
L 43.796875 19.59375 
L 33.59375 19.59375 
z
M 28.09375 57.859375 
L 28.09375 19.59375 
L 4 19.59375 
z
" id="CMR17-52"/>
       </defs>
       <use transform="scale(0.996264)" xlink:href="#CMR17-52"/>
       <use transform="translate(45.690477 0)scale(0.996264)" xlink:href="#CMR17-48"/>
       <use transform="translate(91.380954 0)scale(0.996264)" xlink:href="#CMR17-48"/>
       <use transform="translate(137.071431 0)scale(0.996264)" xlink:href="#CMR17-48"/>
      </g>
     </g>
    </g>
    <g id="xtick_3">
     <g id="line2d_3">
      <path clip-path="url(#pb08b4712cc)" d="M 250.882724 291.515416 
L 250.882724 37.8933 
" style="fill:none;stroke:#ffffff;stroke-linecap:round;stroke-width:1.5;"/>
     </g>
     <g id="text_3">
      <!-- $\mathdefault{6000}$ -->
      <g transform="translate(234.787016 315.430921)scale(0.165 -0.165)">
       <defs>
        <path d="M 10.59375 34 
C 10.59375 57.65625 21.796875 63 28.296875 63 
C 30.40625 63 35.5 62.640625 37.5 59 
C 35.90625 59 32.90625 59 32.90625 55.515625 
C 32.90625 52.828125 35.09375 51.921875 36.5 51.921875 
C 37.40625 51.921875 40.09375 52.3125 40.09375 55.625 
C 40.09375 61.78125 35.09375 65.296875 28.203125 65.296875 
C 16.296875 65.296875 3.796875 52.96875 3.796875 31 
C 3.796875 3.953125 15.09375 -2 23.09375 -2 
C 32.796875 -2 42 6.671875 42 20.046875 
C 42 32.515625 33.90625 41.59375 23.703125 41.59375 
C 17.59375 41.59375 13.09375 37.609375 10.59375 30.625 
z
M 23.09375 0.390625 
C 10.796875 0.390625 10.796875 18.75 10.796875 22.4375 
C 10.796875 29.625 14.203125 40 23.5 40 
C 25.203125 40 30.09375 40 33.40625 33.125 
C 35.203125 29.21875 35.203125 25.140625 35.203125 20.140625 
C 35.203125 14.75 35.203125 10.78125 33.09375 6.78125 
C 30.90625 2.671875 27.703125 0.390625 23.09375 0.390625 
z
" id="CMR17-54"/>
       </defs>
       <use transform="scale(0.996264)" xlink:href="#CMR17-54"/>
       <use transform="translate(45.690477 0)scale(0.996264)" xlink:href="#CMR17-48"/>
       <use transform="translate(91.380954 0)scale(0.996264)" xlink:href="#CMR17-48"/>
       <use transform="translate(137.071431 0)scale(0.996264)" xlink:href="#CMR17-48"/>
      </g>
     </g>
    </g>
    <g id="xtick_4">
     <g id="line2d_4">
      <path clip-path="url(#pb08b4712cc)" d="M 308.53446 291.515416 
L 308.53446 37.8933 
" style="fill:none;stroke:#ffffff;stroke-linecap:round;stroke-width:1.5;"/>
     </g>
     <g id="text_4">
      <!-- $\mathdefault{8000}$ -->
      <g transform="translate(292.438752 315.430921)scale(0.165 -0.165)">
       <defs>
        <path d="M 27.203125 35.375 
C 33.5 38.546875 39.90625 43.328125 39.90625 50.984375 
C 39.90625 60.015625 31.09375 65.296875 23 65.296875 
C 13.90625 65.296875 5.90625 58.734375 5.90625 49.6875 
C 5.90625 47.203125 6.5 42.921875 10.40625 39.140625 
C 11.40625 38.15625 15.59375 35.171875 18.296875 33.28125 
C 13.796875 30.984375 3.296875 25.53125 3.296875 14.59375 
C 3.296875 4.359375 13.09375 -2 22.796875 -2 
C 33.5 -2 42.5 5.65625 42.5 15.78125 
C 42.5 24.84375 36.40625 29.015625 32.40625 31.703125 
z
M 14.09375 44.09375 
C 13.296875 44.59375 9.296875 47.671875 9.296875 52.359375 
C 9.296875 58.421875 15.59375 63 22.796875 63 
C 30.703125 63 36.5 57.4375 36.5 50.96875 
C 36.5 41.703125 26.09375 36.421875 25.59375 36.421875 
C 25.5 36.421875 25.40625 36.421875 24.59375 37.03125 
z
M 32.5 23.734375 
C 34 22.640625 38.796875 19.375 38.796875 13.296875 
C 38.796875 5.953125 31.40625 0.390625 23 0.390625 
C 13.90625 0.390625 7 6.84375 7 14.6875 
C 7 22.546875 13.09375 29.09375 20 32.1875 
z
" id="CMR17-56"/>
       </defs>
       <use transform="scale(0.996264)" xlink:href="#CMR17-56"/>
       <use transform="translate(45.690477 0)scale(0.996264)" xlink:href="#CMR17-48"/>
       <use transform="translate(91.380954 0)scale(0.996264)" xlink:href="#CMR17-48"/>
       <use transform="translate(137.071431 0)scale(0.996264)" xlink:href="#CMR17-48"/>
      </g>
     </g>
    </g>
    <g id="text_5">
     <!-- BDD Nodes ($\approx 2 \cdot |G|$) -->
     <g transform="translate(125.652351 336.076812)scale(0.18 -0.18)">
      <defs>
       <path d="M 8.90625 69 
L 8.90625 0 
L 33.796875 0 
C 47.40625 0 57.296875 8.96875 57.296875 18.75 
C 57.296875 26.328125 50.796875 34 39.09375 36.203125 
C 52.09375 39.96875 54.703125 47.5 54.703125 51.765625 
C 54.703125 60.671875 44.90625 69 31.203125 69 
z
M 17 39 
L 17 63.421875 
L 28.5 63.421875 
C 38.796875 63.421875 46.90625 58.1875 46.90625 51.65625 
C 46.90625 45.71875 40.5 39 27.59375 39 
z
M 17 5.578125 
L 17 32.921875 
L 30.296875 32.921875 
C 41.09375 32.921875 49.40625 26.234375 49.40625 18.84375 
C 49.40625 12.0625 42.09375 5.578125 31 5.578125 
z
" id="CMSS17-66"/>
       <path d="M 8.90625 69 
L 8.90625 0 
L 33.5 0 
C 49.90625 0 62.5 15.3125 62.5 33.90625 
C 62.5 53.09375 49.90625 69 33.5 69 
z
M 17.09375 5.578125 
L 17.09375 63.421875 
L 31.296875 63.421875 
C 44.703125 63.421875 54.296875 51.203125 54.296875 33.90625 
C 54.296875 17.296875 44.796875 5.578125 31.296875 5.578125 
z
" id="CMSS17-68"/>
       <path d="M 22.90625 65.3125 
L 21.09375 69 
L 8.796875 69 
L 8.796875 0 
L 16.59375 0 
L 16.59375 61.34375 
L 16.703125 61.4375 
C 17.40625 59.640625 17.796875 58.75 21.90625 49.90625 
L 43.296875 3.6875 
L 45.09375 0 
L 57.40625 0 
L 57.40625 69 
L 49.59375 69 
L 49.59375 7.65625 
L 49.5 7.546875 
C 48.796875 9.34375 48.40625 10.234375 44.296875 19.078125 
z
" id="CMSS17-78"/>
       <path d="M 44.203125 21.1875 
C 44.203125 34 34.703125 44 23.5 44 
C 12 44 2.703125 33.703125 2.703125 21.1875 
C 2.703125 8.5 12.296875 -1 23.40625 -1 
C 34.796875 -1 44.203125 8.796875 44.203125 21.1875 
z
M 23.5 5.265625 
C 16.40625 5.265625 10.296875 11.078125 10.296875 22 
C 10.296875 33.609375 17.40625 37.921875 23.40625 37.921875 
C 29.90625 37.921875 36.59375 33.21875 36.59375 22 
C 36.59375 10.671875 30.09375 5.265625 23.5 5.265625 
z
" id="CMSS17-111"/>
       <path d="M 40.796875 69 
L 33.40625 69 
L 33.40625 38.09375 
C 30.296875 40.671875 25.203125 43.0625 19.59375 43.0625 
C 10.5 43.0625 3.296875 33.296875 3.296875 21.046875 
C 3.296875 8.78125 10.40625 -1 19.296875 -1 
C 26.203125 -1 30.796875 2.6875 33.203125 4.78125 
L 33.203125 -0.203125 
L 40.796875 -0.203125 
z
M 33.203125 13.0625 
C 33.203125 11.671875 33.203125 10.203125 30.09375 7.53125 
C 28.09375 5.859375 25.703125 5.078125 23.40625 5.078125 
C 18 5.078125 10.90625 9 10.90625 20.9375 
C 10.90625 33.34375 18.90625 37 24.40625 37 
C 28.09375 37 31.09375 35.21875 33.203125 32.265625 
z
" id="CMSS17-100"/>
       <path d="M 39.09375 21.515625 
C 39.09375 24.84375 38.90625 31.296875 35.703125 36.640625 
C 32.203125 42.390625 26.5 44 22.203125 44 
C 11.796875 44 3 34.1875 3 21.484375 
C 3 9.09375 12.09375 -1 23.59375 -1 
C 28.09375 -1 33.59375 0.296875 38.59375 3.875 
C 38.59375 4.28125 38.40625 6.46875 38.296875 6.5625 
C 38.296875 6.765625 38 9.84375 38 10.25 
C 33.203125 6.359375 27.703125 5.078125 23.703125 5.078125 
C 17.296875 5.078125 10.40625 10.421875 10.09375 21.515625 
z
M 10.90625 27 
C 12.203125 32.5625 16.59375 37.828125 22.203125 37.828125 
C 23.703125 37.828125 30.703125 37.828125 32.5 27 
z
" id="CMSS17-101"/>
       <path d="M 32.203125 41.046875 
C 26.296875 43.859375 21.703125 43.859375 18.703125 43.859375 
C 11.59375 43.859375 3.09375 41.375 3.09375 31.296875 
C 3.09375 21.234375 14.09375 19.03125 17.09375 18.421875 
C 21.703125 17.53125 26.796875 16.53125 26.796875 11.5625 
C 26.796875 5.265625 19.59375 5.265625 18.296875 5.265625 
C 14.296875 5.265625 8.796875 6.359375 3.796875 9.96875 
L 2.59375 3.28125 
C 8.296875 0 13.796875 -1 18.40625 -1 
C 30.703125 -1 33.796875 6.5 33.796875 12.203125 
C 33.796875 17.09375 31 20.390625 29.09375 21.890625 
C 25.796875 24.5 24.59375 24.796875 16.40625 26.5 
C 15 26.703125 10.09375 27.796875 10.09375 32.28125 
C 10.09375 38 16.40625 38 17.796875 38 
C 24.296875 38 28.296875 35.984375 31 34.5 
z
" id="CMSS17-115"/>
       <path d="M 25.203125 74.5 
C 19.796875 69.015625 7.40625 56.265625 7.40625 24.8125 
C 7.40625 -6.765625 19.796875 -19.421875 25.203125 -25 
L 31.296875 -25 
C 19 -12.25 15 5.578125 15 24.703125 
C 15 43.71875 18.796875 61.65625 31.296875 74.5 
z
" id="CMSS17-40"/>
       <path d="M 72.21875 45.15625 
C 72.21875 47.234375 71.515625 48.140625 70.828125 48.140625 
C 70.421875 48.140625 69.515625 47.734375 69.421875 45.453125 
C 69.015625 38.578125 62.015625 34.5 55.515625 34.5 
C 49.71875 34.5 44.71875 37.578125 39.515625 41.0625 
C 34.109375 44.65625 28.703125 48.234375 22.203125 48.234375 
C 12.90625 48.234375 5.5 41.15625 5.5 31.984375 
C 5.5 29.796875 6.296875 29 6.90625 29 
C 7.90625 29 8.296875 30.890625 8.296875 31.28125 
C 8.796875 39.65625 17 42.640625 22.203125 42.640625 
C 28 42.640625 33.015625 39.546875 38.203125 36.0625 
C 43.609375 32.484375 49.015625 28.90625 55.515625 28.90625 
C 64.828125 28.90625 72.21875 35.984375 72.21875 45.15625 
z
M 72.21875 21.734375 
C 72.21875 24.640625 71.015625 24.84375 70.828125 24.84375 
C 70.421875 24.84375 69.515625 24.34375 69.421875 22.140625 
C 69.015625 15.234375 62.015625 11.140625 55.515625 11.140625 
C 49.71875 11.140625 44.71875 14.25 39.515625 17.765625 
C 34.109375 21.390625 28.703125 25 22.203125 25 
C 12.90625 25 5.5 17.890625 5.5 8.65625 
C 5.5 6.4375 6.296875 5.640625 6.90625 5.640625 
C 7.90625 5.640625 8.296875 7.546875 8.296875 7.953125 
C 8.796875 16.390625 17 19.40625 22.203125 19.40625 
C 28 19.40625 33.015625 16.28125 38.203125 12.765625 
C 43.609375 9.15625 49.015625 5.53125 55.515625 5.53125 
C 65.015625 5.53125 72.21875 12.9375 72.21875 21.734375 
z
" id="CMSY10-25"/>
       <path d="M 19.203125 25.296875 
C 19.203125 28.203125 16.796875 30.59375 13.90625 30.59375 
C 11 30.59375 8.59375 28.203125 8.59375 25.296875 
C 8.59375 22.390625 11 20 13.90625 20 
C 16.796875 20 19.203125 22.390625 19.203125 25.296875 
z
" id="CMSY10-1"/>
       <path d="M 15.90625 71.40625 
C 15.90625 73.203125 15.90625 75 13.90625 75 
C 11.90625 75 11.90625 73.203125 11.90625 71.40625 
L 11.90625 -21.40625 
C 11.90625 -23.203125 11.90625 -25 13.90625 -25 
C 15.90625 -25 15.90625 -23.203125 15.90625 -21.40625 
z
" id="CMSY10-106"/>
       <path d="M 74.59375 69.109375 
C 74.59375 70 73.90625 70 73.703125 70 
C 73.5 70 73.09375 70 72.296875 69 
L 65.40625 60.765625 
C 64.90625 61.5625 62.90625 65.046875 59 67.328125 
C 54.703125 70 50.40625 70 48.90625 70 
C 27.5 70 5 48.359375 5 24.921875 
C 5 8.53125 16.40625 -2 31.40625 -2 
C 38.59375 -2 47.703125 0.390625 52.703125 6.671875 
C 53.796875 2.890625 56 0.1875 56.703125 0.1875 
C 57.203125 0.1875 57.296875 0.5 57.40625 0.5 
C 57.5 0.6875 58.296875 4.21875 58.796875 6.015625 
L 60.40625 12.453125 
C 61.203125 15.765625 61.59375 17.171875 62.296875 20.171875 
C 63.296875 24 63.5 24 69 24 
C 69.40625 24 70.59375 24 70.59375 26.03125 
C 70.59375 27.09375 69.59375 27.09375 69.296875 27.09375 
C 67.59375 27.09375 65.703125 27.09375 63.90625 27.09375 
L 58.5 27.09375 
C 54.296875 27.09375 49.90625 27.09375 45.796875 27.09375 
C 44.90625 27.09375 43.703125 27.09375 43.703125 25.171875 
C 43.703125 24.09375 44.5 24.09375 44.5 24 
L 47 24 
C 54.90625 24 54.90625 23.265625 54.90625 21.90625 
C 54.90625 21.796875 53 11.734375 51.09375 8.765625 
C 47.296875 3.1875 39.40625 0.890625 33.5 0.890625 
C 25.796875 0.890625 13.296875 4.875 13.296875 22.03125 
C 13.296875 28.6875 15.703125 43.875 25.40625 55.09375 
C 31.703125 62.25 41 67.109375 49.796875 67.109375 
C 61.59375 67.109375 65.796875 57.109375 65.796875 47.984375 
C 65.796875 46.40625 65.40625 44.234375 65.40625 42.84375 
C 65.40625 41.953125 66.40625 41.953125 66.703125 41.953125 
C 67.796875 41.953125 67.90625 42.046875 68.296875 43.828125 
z
" id="CMMI12-71"/>
       <path d="M 11.296875 -25 
C 16.703125 -19.515625 29.09375 -6.765625 29.09375 24.703125 
C 29.09375 56.265625 16.703125 68.921875 11.296875 74.5 
L 5.203125 74.5 
C 17.5 61.75 21.5 43.921875 21.5 24.8125 
C 21.5 5.78125 17.703125 -12.15625 5.203125 -25 
z
" id="CMSS17-41"/>
      </defs>
      <use transform="scale(0.996264)" xlink:href="#CMSS17-66"/>
      <use transform="translate(62.33804 0)scale(0.996264)" xlink:href="#CMSS17-68"/>
      <use transform="translate(129.880882 0)scale(0.996264)" xlink:href="#CMSS17-68"/>
      <use transform="translate(228.652836 0)scale(0.996264)" xlink:href="#CMSS17-78"/>
      <use transform="translate(294.714355 0)scale(0.996264)" xlink:href="#CMSS17-111"/>
      <use transform="translate(344.160418 0)scale(0.996264)" xlink:href="#CMSS17-100"/>
      <use transform="translate(392.365361 0)scale(0.996264)" xlink:href="#CMSS17-101"/>
      <use transform="translate(434.004183 0)scale(0.996264)" xlink:href="#CMSS17-115"/>
      <use transform="translate(501.146838 0)scale(0.996264)" xlink:href="#CMSS17-40"/>
      <use transform="translate(537.580752 0)scale(0.996264)" xlink:href="#CMSY10-25"/>
      <use transform="translate(642.742228 0)scale(0.996264)" xlink:href="#CMR17-50"/>
      <use transform="translate(710.571912 0)scale(0.996264)" xlink:href="#CMSY10-1"/>
      <use transform="translate(760.385204 0)scale(0.996264)" xlink:href="#CMSY10-106"/>
      <use transform="translate(788.059289 0)scale(0.996264)" xlink:href="#CMMI12-71"/>
      <use transform="translate(865.006151 0)scale(0.996264)" xlink:href="#CMSY10-106"/>
      <use transform="translate(892.680235 0)scale(0.996264)" xlink:href="#CMSS17-41"/>
     </g>
    </g>
   </g>
   <g id="matplotlib.axis_2">
    <g id="ytick_1">
     <g id="line2d_5">
      <path clip-path="url(#pb08b4712cc)" d="M 77.985166 277.194155 
L 340.56 277.194155 
" style="fill:none;stroke:#ffffff;stroke-linecap:round;stroke-width:1.5;"/>
     </g>
     <g id="text_6">
      <!-- $\mathdefault{0}$ -->
      <g transform="translate(57.437312 282.901908)scale(0.165 -0.165)">
       <use transform="scale(0.996264)" xlink:href="#CMR17-48"/>
      </g>
     </g>
    </g>
    <g id="ytick_2">
     <g id="line2d_6">
      <path clip-path="url(#pb08b4712cc)" d="M 77.985166 209.557953 
L 340.56 209.557953 
" style="fill:none;stroke:#ffffff;stroke-linecap:round;stroke-width:1.5;"/>
     </g>
     <g id="text_7">
      <!-- $\mathdefault{100}$ -->
      <g transform="translate(41.341604 215.265705)scale(0.165 -0.165)">
       <defs>
        <path d="M 26.59375 63.40625 
C 26.59375 65.5 26.5 65.5 25.09375 65.5 
C 21.203125 61.1875 15.296875 59.796875 9.703125 59.796875 
C 9.40625 59.796875 8.90625 59.796875 8.796875 59.5 
C 8.703125 59.296875 8.703125 59.09375 8.703125 57 
C 11.796875 57 17 57.59375 21 59.984375 
L 21 7.203125 
C 21 3.6875 20.796875 2.5 12.203125 2.5 
L 9.203125 2.5 
L 9.203125 0 
C 14 0 19 0 23.796875 0 
C 28.59375 0 33.59375 0 38.40625 0 
L 38.40625 2.5 
L 35.40625 2.5 
C 26.796875 2.5 26.59375 3.59375 26.59375 7.15625 
z
" id="CMR17-49"/>
       </defs>
       <use transform="scale(0.996264)" xlink:href="#CMR17-49"/>
       <use transform="translate(45.690477 0)scale(0.996264)" xlink:href="#CMR17-48"/>
       <use transform="translate(91.380954 0)scale(0.996264)" xlink:href="#CMR17-48"/>
      </g>
     </g>
    </g>
    <g id="ytick_3">
     <g id="line2d_7">
      <path clip-path="url(#pb08b4712cc)" d="M 77.985166 141.921751 
L 340.56 141.921751 
" style="fill:none;stroke:#ffffff;stroke-linecap:round;stroke-width:1.5;"/>
     </g>
     <g id="text_8">
      <!-- $\mathdefault{200}$ -->
      <g transform="translate(41.341604 147.629503)scale(0.165 -0.165)">
       <use transform="scale(0.996264)" xlink:href="#CMR17-50"/>
       <use transform="translate(45.690477 0)scale(0.996264)" xlink:href="#CMR17-48"/>
       <use transform="translate(91.380954 0)scale(0.996264)" xlink:href="#CMR17-48"/>
      </g>
     </g>
    </g>
    <g id="ytick_4">
     <g id="line2d_8">
      <path clip-path="url(#pb08b4712cc)" d="M 77.985166 74.285549 
L 340.56 74.285549 
" style="fill:none;stroke:#ffffff;stroke-linecap:round;stroke-width:1.5;"/>
     </g>
     <g id="text_9">
      <!-- $\mathdefault{300}$ -->
      <g transform="translate(41.341604 79.993301)scale(0.165 -0.165)">
       <defs>
        <path d="M 22.09375 33.703125 
C 31 33.703125 34.90625 25.96875 34.90625 17.03125 
C 34.90625 5 28.5 0.390625 22.703125 0.390625 
C 17.40625 0.390625 8.796875 3.03125 6.09375 10.828125 
C 6.59375 10.625 7.09375 10.625 7.59375 10.625 
C 10 10.625 11.796875 12.21875 11.796875 14.8125 
C 11.796875 17.703125 9.59375 19 7.59375 19 
C 5.90625 19 3.296875 18.203125 3.296875 14.46875 
C 3.296875 5.234375 12.296875 -2 22.90625 -2 
C 34 -2 42.5 6.71875 42.5 16.953125 
C 42.5 26.671875 34.5 33.703125 25 34.796875 
C 32.59375 36.375 39.90625 43.0625 39.90625 52.015625 
C 39.90625 59.6875 32 65.296875 23 65.296875 
C 13.90625 65.296875 5.90625 59.828125 5.90625 52.015625 
C 5.90625 48.59375 8.5 48 9.796875 48 
C 11.90625 48 13.703125 49.296875 13.703125 51.890625 
C 13.703125 54.46875 11.90625 55.765625 9.796875 55.765625 
C 9.40625 55.765625 8.90625 55.765625 8.5 55.578125 
C 11.40625 61.859375 19.296875 63 22.796875 63 
C 26.296875 63 32.90625 61.328125 32.90625 51.875 
C 32.90625 49.109375 32.5 44.1875 29.09375 39.84375 
C 26.09375 36 22.703125 36 19.40625 35.6875 
C 18.90625 35.6875 16.59375 35.453125 16.203125 35.453125 
C 15.5 35.359375 15.09375 35.265625 15.09375 34.5 
C 15.09375 33.796875 15.203125 33.703125 17.203125 33.703125 
z
" id="CMR17-51"/>
       </defs>
       <use transform="scale(0.996264)" xlink:href="#CMR17-51"/>
       <use transform="translate(45.690477 0)scale(0.996264)" xlink:href="#CMR17-48"/>
       <use transform="translate(91.380954 0)scale(0.996264)" xlink:href="#CMR17-48"/>
      </g>
     </g>
    </g>
    <g id="text_10">
     <!-- Time to synthesize policy (sec) -->
     <g transform="translate(32.87342 274.26805)rotate(-90)scale(0.18 -0.18)">
      <defs>
       <path d="M 36.203125 62 
L 44.5 62 
C 45.703125 62 46.90625 62 48.09375 62 
L 60.59375 62 
L 60.59375 68.375 
L 3.40625 68.375 
L 3.40625 62 
L 15.90625 62 
C 17.09375 62 18.296875 62 19.5 62 
L 27.796875 62 
L 27.796875 -0.5 
L 36.203125 -0.5 
z
" id="CMSS17-84"/>
       <path d="M 15.296875 65.359375 
L 6.90625 65.359375 
L 6.90625 57 
L 15.296875 57 
z
M 14.796875 42.796875 
L 7.40625 42.796875 
L 7.40625 0 
L 14.796875 0 
z
" id="CMSS17-105"/>
       <path d="M 67 29.328125 
C 67 36.0625 65.296875 44 54.09375 44 
C 46.59375 44 42.09375 39.3125 40.09375 36.421875 
C 38.296875 41.71875 34.09375 44 28.09375 44 
C 21.296875 44 17 40.125 14.703125 37.328125 
L 14.703125 43.09375 
L 7.40625 43.09375 
L 7.40625 0 
L 15 0 
L 15 24.359375 
C 15 30.296875 17.203125 37.9375 24.296875 37.9375 
C 33.40625 37.9375 33.40625 31.5 33.40625 28.578125 
L 33.40625 0 
L 41 0 
L 41 24.359375 
C 41 30.296875 43.203125 37.9375 50.296875 37.9375 
C 59.40625 37.9375 59.40625 31.5 59.40625 28.578125 
L 59.40625 0 
L 67 0 
z
" id="CMSS17-109"/>
       <path d="M 16.703125 37 
L 29.703125 37 
L 29.703125 42.765625 
L 16.703125 42.765625 
L 16.703125 55 
L 9.59375 55 
L 9.59375 42.765625 
L 1.703125 42.765625 
L 1.703125 37 
L 9.40625 37 
L 9.40625 11.703125 
C 9.40625 6 10.703125 -1 17.296875 -1 
C 22.296875 -1 26.90625 0.390625 31.296875 2.6875 
L 29.703125 8.5625 
C 27.296875 6.46875 24.40625 5.265625 21.296875 5.265625 
C 16.90625 5.265625 16.703125 10.875 16.703125 13.375 
z
" id="CMSS17-116"/>
       <path d="M 41.796875 43 
L 34 43 
C 25.5 20.21875 22.59375 10.96875 22.40625 5.984375 
L 22.296875 5.984375 
C 22 10.875 17.59375 22.8125 14.09375 31.359375 
L 9.40625 43 
L 1.296875 43 
L 19 0.203125 
C 17.90625 -2.78125 16.296875 -7.265625 15.796875 -8.265625 
C 13.59375 -13.828125 12.09375 -13.828125 10.5 -13.828125 
C 10.09375 -13.828125 6.90625 -13.828125 3.296875 -12.640625 
L 3.90625 -19.203125 
C 6.40625 -19.703125 8.90625 -20 10.703125 -20 
C 13.203125 -20 18.203125 -20 22.796875 -7.765625 
z
" id="CMSS17-121"/>
       <path d="M 40.90625 29.328125 
C 40.90625 35.671875 39.40625 44 28.09375 44 
C 21.703125 44 17.5 40.71875 14.703125 37.328125 
L 14.703125 43.09375 
L 7.40625 43.09375 
L 7.40625 0 
L 15 0 
L 15 24.359375 
C 15 30.6875 17.40625 37.9375 24.203125 37.9375 
C 33 37.9375 33.296875 32 33.296875 28.578125 
L 33.296875 0 
L 40.90625 0 
z
" id="CMSS17-110"/>
       <path d="M 40.90625 29.546875 
C 40.90625 35.8125 39.40625 44.0625 28.09375 44.0625 
C 21.796875 44.0625 17.703125 40.984375 14.796875 37.609375 
L 14.796875 69.5 
L 7.40625 69.5 
L 7.40625 0.5 
L 15 0.5 
L 15 24.578125 
C 15 30.828125 17.40625 38 24.203125 38 
C 33 38 33.296875 32.125 33.296875 28.734375 
L 33.296875 0.5 
L 40.90625 0.5 
z
" id="CMSS17-104"/>
       <path d="M 37.5 39.09375 
L 37.5 42.96875 
L 3.90625 42.96875 
L 3.90625 37 
L 16.703125 37 
C 17.90625 37 19.09375 37 20.296875 37 
L 27.296875 37 
L 2.59375 4.078125 
L 2.59375 0 
L 37.796875 0 
L 37.796875 6.171875 
L 24.203125 6.171875 
C 23 6.171875 21.796875 6.171875 20.59375 6.171875 
L 12.90625 6.171875 
z
" id="CMSS17-122"/>
       <path d="M 15.09375 5.203125 
C 18.40625 2.015625 22.90625 -0.078125 27.703125 -0.078125 
C 37 -0.078125 45 9.421875 45 22.0625 
C 45 33.734375 39 44 30.40625 44 
C 25.40625 44 19.40625 42.21875 14.90625 38.625 
L 14.90625 43.203125 
L 7.5 43.203125 
L 7.5 -19 
L 15.09375 -19 
z
M 15.09375 32.8125 
C 15.90625 34 19.296875 37.734375 24.796875 37.734375 
C 31.796875 37.734375 37.40625 30.625 37.40625 22.0625 
C 37.40625 12.296875 30.59375 6 23.90625 6 
C 21.90625 6 19.796875 6.484375 17.796875 8.171875 
C 15.09375 10.53125 15.09375 12 15.09375 13.390625 
z
" id="CMSS17-112"/>
       <path d="M 14.796875 69 
L 7.40625 69 
L 7.40625 0 
L 14.796875 0 
z
" id="CMSS17-108"/>
       <path d="M 38.5 39.703125 
C 38.5 40.390625 33.90625 42.40625 32.703125 42.796875 
C 29.40625 44 25.203125 44 24.09375 44 
C 11.09375 44 3.296875 32.703125 3.296875 21.296875 
C 3.296875 9.296875 12 -1 23.703125 -1 
C 30.40625 -1 35.203125 1.1875 39.09375 3.78125 
L 38.5 10.375 
C 34.203125 7.078125 29.203125 5.265625 23.796875 5.265625 
C 16 5.265625 10.90625 12.09375 10.90625 21.390625 
C 10.90625 28.609375 14.203125 37.71875 24.203125 37.71875 
C 29.703125 37.71875 32.796875 36.609375 37.40625 33.515625 
z
" id="CMSS17-99"/>
      </defs>
      <use transform="scale(0.996264)" xlink:href="#CMSS17-84"/>
      <use transform="translate(63.819454 0)scale(0.996264)" xlink:href="#CMSS17-105"/>
      <use transform="translate(86.000177 0)scale(0.996264)" xlink:href="#CMSS17-109"/>
      <use transform="translate(160.229431 0)scale(0.996264)" xlink:href="#CMSS17-101"/>
      <use transform="translate(233.097366 0)scale(0.996264)" xlink:href="#CMSS17-116"/>
      <use transform="translate(266.928933 0)scale(0.996264)" xlink:href="#CMSS17-111"/>
      <use transform="translate(345.001669 0)scale(0.996264)" xlink:href="#CMSS17-115"/>
      <use transform="translate(380.915211 0)scale(0.996264)" xlink:href="#CMSS17-121"/>
      <use transform="translate(423.915353 0)scale(0.996264)" xlink:href="#CMSS17-110"/>
      <use transform="translate(472.120296 0)scale(0.996264)" xlink:href="#CMSS17-116"/>
      <use transform="translate(505.951863 0)scale(0.996264)" xlink:href="#CMSS17-104"/>
      <use transform="translate(554.156806 0)scale(0.996264)" xlink:href="#CMSS17-101"/>
      <use transform="translate(595.795628 0)scale(0.996264)" xlink:href="#CMSS17-115"/>
      <use transform="translate(631.70917 0)scale(0.996264)" xlink:href="#CMSS17-105"/>
      <use transform="translate(653.889893 0)scale(0.996264)" xlink:href="#CMSS17-122"/>
      <use transform="translate(694.567765 0)scale(0.996264)" xlink:href="#CMSS17-101"/>
      <use transform="translate(767.4357 0)scale(0.996264)" xlink:href="#CMSS17-112"/>
      <use transform="translate(818.243081 0)scale(0.996264)" xlink:href="#CMSS17-111"/>
      <use transform="translate(865.086705 0)scale(0.996264)" xlink:href="#CMSS17-108"/>
      <use transform="translate(887.267428 0)scale(0.996264)" xlink:href="#CMSS17-105"/>
      <use transform="translate(909.448151 0)scale(0.996264)" xlink:href="#CMSS17-99"/>
      <use transform="translate(951.086973 0)scale(0.996264)" xlink:href="#CMSS17-121"/>
      <use transform="translate(1025.316227 0)scale(0.996264)" xlink:href="#CMSS17-40"/>
      <use transform="translate(1061.750142 0)scale(0.996264)" xlink:href="#CMSS17-115"/>
      <use transform="translate(1097.663684 0)scale(0.996264)" xlink:href="#CMSS17-101"/>
      <use transform="translate(1139.302506 0)scale(0.996264)" xlink:href="#CMSS17-99"/>
      <use transform="translate(1180.941328 0)scale(0.996264)" xlink:href="#CMSS17-41"/>
     </g>
    </g>
   </g>
   <g id="PathCollection_1">
    <defs>
     <path d="M 0 4.5 
C 1.193414 4.5 2.338109 4.025852 3.181981 3.181981 
C 4.025852 2.338109 4.5 1.193414 4.5 0 
C 4.5 -1.193414 4.025852 -2.338109 3.181981 -3.181981 
C 2.338109 -4.025852 1.193414 -4.5 0 -4.5 
C -1.193414 -4.5 -2.338109 -4.025852 -3.181981 -3.181981 
C -4.025852 -2.338109 -4.5 -1.193414 -4.5 0 
C -4.5 1.193414 -4.025852 2.338109 -3.181981 3.181981 
C -2.338109 4.025852 -1.193414 4.5 0 4.5 
z
" id="mcfcd2caaf4" style="stroke:#66c2a5;stroke-opacity:0.8;"/>
    </defs>
    <g clip-path="url(#pb08b4712cc)">
     <use style="fill:#66c2a5;fill-opacity:0.8;stroke:#66c2a5;stroke-opacity:0.8;" x="156.881567" xlink:href="#mcfcd2caaf4" y="220.952996"/>
     <use style="fill:#66c2a5;fill-opacity:0.8;stroke:#66c2a5;stroke-opacity:0.8;" x="210.238249" xlink:href="#mcfcd2caaf4" y="178.627755"/>
     <use style="fill:#66c2a5;fill-opacity:0.8;stroke:#66c2a5;stroke-opacity:0.8;" x="271.118483" xlink:href="#mcfcd2caaf4" y="128.996711"/>
     <use style="fill:#66c2a5;fill-opacity:0.8;stroke:#66c2a5;stroke-opacity:0.8;" x="92.859314" xlink:href="#mcfcd2caaf4" y="265.502193"/>
     <use style="fill:#66c2a5;fill-opacity:0.8;stroke:#66c2a5;stroke-opacity:0.8;" x="117.30365" xlink:href="#mcfcd2caaf4" y="248.001981"/>
     <use style="fill:#66c2a5;fill-opacity:0.8;stroke:#66c2a5;stroke-opacity:0.8;" x="167.691268" xlink:href="#mcfcd2caaf4" y="208.639422"/>
     <use style="fill:#66c2a5;fill-opacity:0.8;stroke:#66c2a5;stroke-opacity:0.8;" x="240.418934" xlink:href="#mcfcd2caaf4" y="149.052981"/>
     <use style="fill:#66c2a5;fill-opacity:0.8;stroke:#66c2a5;stroke-opacity:0.8;" x="340.56" xlink:href="#mcfcd2caaf4" y="62.940699"/>
     <use style="fill:#66c2a5;fill-opacity:0.8;stroke:#66c2a5;stroke-opacity:0.8;" x="77.985166" xlink:href="#mcfcd2caaf4" y="275.381506"/>
     <use style="fill:#66c2a5;fill-opacity:0.8;stroke:#66c2a5;stroke-opacity:0.8;" x="84.9322" xlink:href="#mcfcd2caaf4" y="270.619751"/>
     <use style="fill:#66c2a5;fill-opacity:0.8;stroke:#66c2a5;stroke-opacity:0.8;" x="98.768617" xlink:href="#mcfcd2caaf4" y="260.653246"/>
     <use style="fill:#66c2a5;fill-opacity:0.8;stroke:#66c2a5;stroke-opacity:0.8;" x="128.25748" xlink:href="#mcfcd2caaf4" y="237.453446"/>
     <use style="fill:#66c2a5;fill-opacity:0.8;stroke:#66c2a5;stroke-opacity:0.8;" x="168.066004" xlink:href="#mcfcd2caaf4" y="203.797382"/>
     <use style="fill:#66c2a5;fill-opacity:0.8;stroke:#66c2a5;stroke-opacity:0.8;" x="242.321441" xlink:href="#mcfcd2caaf4" y="137.076572"/>
     <use style="fill:#66c2a5;fill-opacity:0.8;stroke:#66c2a5;stroke-opacity:0.8;" x="77.985166" xlink:href="#mcfcd2caaf4" y="275.177009"/>
     <use style="fill:#66c2a5;fill-opacity:0.8;stroke:#66c2a5;stroke-opacity:0.8;" x="84.9322" xlink:href="#mcfcd2caaf4" y="270.484552"/>
     <use style="fill:#66c2a5;fill-opacity:0.8;stroke:#66c2a5;stroke-opacity:0.8;" x="98.768617" xlink:href="#mcfcd2caaf4" y="260.483177"/>
     <use style="fill:#66c2a5;fill-opacity:0.8;stroke:#66c2a5;stroke-opacity:0.8;" x="128.25748" xlink:href="#mcfcd2caaf4" y="237.147334"/>
     <use style="fill:#66c2a5;fill-opacity:0.8;stroke:#66c2a5;stroke-opacity:0.8;" x="167.374183" xlink:href="#mcfcd2caaf4" y="204.079743"/>
     <use style="fill:#66c2a5;fill-opacity:0.8;stroke:#66c2a5;stroke-opacity:0.8;" x="242.494396" xlink:href="#mcfcd2caaf4" y="136.148006"/>
     <use style="fill:#66c2a5;fill-opacity:0.8;stroke:#66c2a5;stroke-opacity:0.8;" x="319.718897" xlink:href="#mcfcd2caaf4" y="63.151062"/>
     <use style="fill:#66c2a5;fill-opacity:0.8;stroke:#66c2a5;stroke-opacity:0.8;" x="77.985166" xlink:href="#mcfcd2caaf4" y="274.774252"/>
     <use style="fill:#66c2a5;fill-opacity:0.8;stroke:#66c2a5;stroke-opacity:0.8;" x="84.44216" xlink:href="#mcfcd2caaf4" y="270.083366"/>
     <use style="fill:#66c2a5;fill-opacity:0.8;stroke:#66c2a5;stroke-opacity:0.8;" x="91.936886" xlink:href="#mcfcd2caaf4" y="263.737744"/>
     <use style="fill:#66c2a5;fill-opacity:0.8;stroke:#66c2a5;stroke-opacity:0.8;" x="93.089921" xlink:href="#mcfcd2caaf4" y="261.957371"/>
     <use style="fill:#66c2a5;fill-opacity:0.8;stroke:#66c2a5;stroke-opacity:0.8;" x="130.361768" xlink:href="#mcfcd2caaf4" y="231.290055"/>
     <use style="fill:#66c2a5;fill-opacity:0.8;stroke:#66c2a5;stroke-opacity:0.8;" x="199.947414" xlink:href="#mcfcd2caaf4" y="170.665176"/>
     <use style="fill:#66c2a5;fill-opacity:0.8;stroke:#66c2a5;stroke-opacity:0.8;" x="275.701796" xlink:href="#mcfcd2caaf4" y="99.177399"/>
    </g>
   </g>
   <g id="PolyCollection_1">
    <defs>
     <path d="M 77.985166 -84.056452 
L 77.985166 -80.012862 
L 80.637437 -82.27711 
L 83.289708 -84.561924 
L 85.941979 -86.849234 
L 88.59425 -89.125345 
L 91.246521 -91.401455 
L 93.898792 -93.677565 
L 96.551063 -95.954045 
L 99.203334 -98.233719 
L 101.855605 -100.505948 
L 104.507876 -102.762637 
L 107.160147 -105.050504 
L 109.812418 -107.309288 
L 112.464689 -109.566423 
L 115.11696 -111.806206 
L 117.769232 -114.013959 
L 120.421503 -116.223747 
L 123.073774 -118.433119 
L 125.726045 -120.631964 
L 128.378316 -122.852505 
L 131.030587 -124.994123 
L 133.682858 -127.166733 
L 136.335129 -129.364902 
L 138.9874 -131.534075 
L 141.639671 -133.680445 
L 144.291942 -135.826556 
L 146.944213 -137.96268 
L 149.596484 -140.102876 
L 152.248755 -142.235096 
L 154.901026 -144.372308 
L 157.553297 -146.495736 
L 160.205568 -148.625569 
L 162.857839 -150.748421 
L 165.51011 -152.846719 
L 168.162382 -154.9702 
L 170.814653 -157.078915 
L 173.466924 -159.195351 
L 176.119195 -161.298681 
L 178.771466 -163.404976 
L 181.423737 -165.493751 
L 184.076008 -167.593403 
L 186.728279 -169.693055 
L 189.38055 -171.778333 
L 192.032821 -173.863569 
L 194.685092 -175.94886 
L 197.337363 -178.03497 
L 199.989634 -180.154665 
L 202.641905 -182.293209 
L 205.294176 -184.393597 
L 207.946447 -186.485605 
L 210.598718 -188.569979 
L 213.250989 -190.654354 
L 215.90326 -192.753125 
L 218.555532 -194.860889 
L 221.207803 -196.968652 
L 223.860074 -199.076416 
L 226.512345 -201.18418 
L 229.164616 -203.291943 
L 231.816887 -205.393413 
L 234.469158 -207.493186 
L 237.121429 -209.592959 
L 239.7737 -211.692732 
L 242.425971 -213.792506 
L 245.078242 -215.892279 
L 247.730513 -217.992052 
L 250.382784 -220.091825 
L 253.035055 -222.191599 
L 255.687326 -224.291372 
L 258.339597 -226.391145 
L 260.991868 -228.490918 
L 263.644139 -230.591023 
L 266.296411 -232.681953 
L 268.948682 -234.772558 
L 271.600953 -236.863318 
L 274.253224 -238.954099 
L 276.905495 -241.044881 
L 279.557766 -243.135663 
L 282.210037 -245.226444 
L 284.862308 -247.317226 
L 287.514579 -249.408008 
L 290.16685 -251.49879 
L 292.819121 -253.589571 
L 295.471392 -255.680353 
L 298.123663 -257.771135 
L 300.775934 -259.861916 
L 303.428205 -261.952698 
L 306.080476 -264.04348 
L 308.732747 -266.134261 
L 311.385018 -268.225043 
L 314.037289 -270.315825 
L 316.689561 -272.406606 
L 319.341832 -274.509796 
L 321.994103 -276.617257 
L 324.646374 -278.724718 
L 327.298645 -280.822803 
L 329.950916 -282.913688 
L 332.603187 -285.004574 
L 335.255458 -287.095459 
L 337.907729 -289.186344 
L 340.56 -291.27723 
L 340.56 -310.578422 
L 340.56 -310.578422 
L 337.907729 -308.278163 
L 335.255458 -305.977904 
L 332.603187 -303.677609 
L 329.950916 -301.373616 
L 327.298645 -299.052068 
L 324.646374 -296.730412 
L 321.994103 -294.408755 
L 319.341832 -292.087098 
L 316.689561 -289.780145 
L 314.037289 -287.474871 
L 311.385018 -285.169596 
L 308.732747 -282.860405 
L 306.080476 -280.545491 
L 303.428205 -278.230577 
L 300.775934 -275.915662 
L 298.123663 -273.600748 
L 295.471392 -271.285833 
L 292.819121 -268.970919 
L 290.16685 -266.656005 
L 287.514579 -264.34109 
L 284.862308 -262.02565 
L 282.210037 -259.709568 
L 279.557766 -257.393486 
L 276.905495 -255.043918 
L 274.253224 -252.693104 
L 271.600953 -250.34229 
L 268.948682 -247.991477 
L 266.296411 -245.65396 
L 263.644139 -243.332303 
L 260.991868 -241.010646 
L 258.339597 -238.688989 
L 255.687326 -236.367332 
L 253.035055 -234.045189 
L 250.382784 -231.722946 
L 247.730513 -229.400704 
L 245.078242 -227.078461 
L 242.425971 -224.756218 
L 239.7737 -222.433976 
L 237.121429 -220.122041 
L 234.469158 -217.8155 
L 231.816887 -215.514823 
L 229.164616 -213.215119 
L 226.512345 -210.915123 
L 223.860074 -208.592495 
L 221.207803 -206.286121 
L 218.555532 -203.980452 
L 215.90326 -201.67445 
L 213.250989 -199.362122 
L 210.598718 -197.022877 
L 207.946447 -194.728802 
L 205.294176 -192.444074 
L 202.641905 -190.145033 
L 199.989634 -187.813262 
L 197.337363 -185.466554 
L 194.685092 -183.140609 
L 192.032821 -180.847173 
L 189.38055 -178.553737 
L 186.728279 -176.24817 
L 184.076008 -173.926186 
L 181.423737 -171.603248 
L 178.771466 -169.291022 
L 176.119195 -167.002482 
L 173.466924 -164.70545 
L 170.814653 -162.408008 
L 168.162382 -160.104446 
L 165.51011 -157.77964 
L 162.857839 -155.455498 
L 160.205568 -153.140254 
L 157.553297 -150.860553 
L 154.901026 -148.580854 
L 152.248755 -146.279804 
L 149.596484 -143.999971 
L 146.944213 -141.7038 
L 144.291942 -139.433792 
L 141.639671 -137.160909 
L 138.9874 -134.868953 
L 136.335129 -132.625674 
L 133.682858 -130.350417 
L 131.030587 -128.094745 
L 128.378316 -125.8403 
L 125.726045 -123.594436 
L 123.073774 -121.308572 
L 120.421503 -119.069562 
L 117.769232 -116.85041 
L 115.11696 -114.608943 
L 112.464689 -112.375218 
L 109.812418 -110.178328 
L 107.160147 -107.922465 
L 104.507876 -105.691194 
L 101.855605 -103.499726 
L 99.203334 -101.288015 
L 96.551063 -99.09418 
L 93.898792 -96.900494 
L 91.246521 -94.739845 
L 88.59425 -92.597701 
L 85.941979 -90.437569 
L 83.289708 -88.304306 
L 80.637437 -86.18372 
L 77.985166 -84.056452 
z
" id="m3d29f16ae8" style="stroke:#ffffff;stroke-opacity:0.15;stroke-width:1.5;"/>
    </defs>
    <g clip-path="url(#pb08b4712cc)">
     <use style="fill:#66c2a5;fill-opacity:0.15;stroke:#ffffff;stroke-opacity:0.15;stroke-width:1.5;" x="0" xlink:href="#m3d29f16ae8" y="360"/>
    </g>
   </g>
   <g id="line2d_9">
    <path clip-path="url(#pb08b4712cc)" d="M 77.985166 277.633176 
L 80.637437 275.420632 
L 83.289708 273.208089 
L 85.941979 270.995546 
L 88.59425 268.783003 
L 91.246521 266.57046 
L 93.898792 264.357917 
L 96.551063 262.145374 
L 99.203334 259.932831 
L 101.855605 257.720288 
L 104.507876 255.507745 
L 107.160147 253.295202 
L 109.812418 251.082659 
L 112.464689 248.870116 
L 115.11696 246.657573 
L 117.769232 244.44503 
L 120.421503 242.232487 
L 123.073774 240.019944 
L 125.726045 237.807401 
L 128.378316 235.594858 
L 131.030587 233.382315 
L 133.682858 231.169772 
L 136.335129 228.957229 
L 138.9874 226.744686 
L 141.639671 224.532143 
L 144.291942 222.3196 
L 146.944213 220.107057 
L 149.596484 217.894514 
L 152.248755 215.681971 
L 154.901026 213.469428 
L 157.553297 211.256885 
L 160.205568 209.044342 
L 162.857839 206.831798 
L 165.51011 204.619255 
L 168.162382 202.406712 
L 170.814653 200.194169 
L 173.466924 197.981626 
L 176.119195 195.769083 
L 178.771466 193.55654 
L 181.423737 191.343997 
L 184.076008 189.131454 
L 186.728279 186.918911 
L 189.38055 184.706368 
L 192.032821 182.493825 
L 194.685092 180.281282 
L 197.337363 178.068739 
L 199.989634 175.856196 
L 202.641905 173.643653 
L 205.294176 171.43111 
L 207.946447 169.218567 
L 210.598718 167.006024 
L 213.250989 164.793481 
L 215.90326 162.580938 
L 218.555532 160.368395 
L 221.207803 158.155852 
L 223.860074 155.943309 
L 226.512345 153.730766 
L 229.164616 151.518223 
L 231.816887 149.30568 
L 234.469158 147.093137 
L 237.121429 144.880594 
L 239.7737 142.668051 
L 242.425971 140.455508 
L 245.078242 138.242964 
L 247.730513 136.030421 
L 250.382784 133.817878 
L 253.035055 131.605335 
L 255.687326 129.392792 
L 258.339597 127.180249 
L 260.991868 124.967706 
L 263.644139 122.755163 
L 266.296411 120.54262 
L 268.948682 118.330077 
L 271.600953 116.117534 
L 274.253224 113.904991 
L 276.905495 111.692448 
L 279.557766 109.479905 
L 282.210037 107.267362 
L 284.862308 105.054819 
L 287.514579 102.842276 
L 290.16685 100.629733 
L 292.819121 98.41719 
L 295.471392 96.204647 
L 298.123663 93.992104 
L 300.775934 91.779561 
L 303.428205 89.567018 
L 306.080476 87.354475 
L 308.732747 85.141932 
L 311.385018 82.929389 
L 314.037289 80.716846 
L 316.689561 78.504303 
L 319.341832 76.29176 
L 321.994103 74.079217 
L 324.646374 71.866673 
L 327.298645 69.65413 
L 329.950916 67.441587 
L 332.603187 65.229044 
L 335.255458 63.016501 
L 337.907729 60.803958 
L 340.56 58.591415 
" style="fill:none;stroke:#66c2a5;stroke-linecap:round;stroke-width:3.375;"/>
   </g>
   <g id="patch_3">
    <path d="M 77.985166 291.515416 
L 77.985166 37.8933 
" style="fill:none;stroke:#ffffff;stroke-linecap:square;stroke-linejoin:miter;stroke-width:1.875;"/>
   </g>
   <g id="patch_4">
    <path d="M 77.985166 291.515416 
L 340.56 291.515416 
" style="fill:none;stroke:#ffffff;stroke-linecap:square;stroke-linejoin:miter;stroke-width:1.875;"/>
   </g>
   <g id="text_11">
    <!-- Linear growth in game size -->
    <g transform="translate(114.850216 31.8933)scale(0.18 -0.18)">
     <defs>
      <path d="M 26.09375 6.46875 
C 24.90625 6.46875 23.703125 6.46875 22.5 6.46875 
L 17.203125 6.46875 
L 17.203125 69 
L 8.796875 69 
L 8.796875 0 
L 46.90625 0 
L 46.90625 6.46875 
z
" id="CMSS17-76"/>
      <path d="M 37.59375 27.984375 
C 37.59375 37.375 30.90625 43.875 21.90625 43.875 
C 17.5 43.875 12.703125 43.078125 7.203125 39.890625 
L 7.796875 33.359375 
C 10.296875 35.125 14.59375 38 21.796875 38 
C 26.90625 38 30 34.0625 30 27.84375 
L 30 24 
C 14 24 4 19.34375 4 11.34375 
C 4 7.203125 6.5 -1 14.796875 -1 
C 16.296875 -1 24.40625 -1 30.203125 3.390625 
L 30.203125 -0.296875 
L 37.59375 -0.296875 
z
M 30 12.75 
C 30 10.953125 30 8.5625 27 6.78125 
C 24.40625 5.078125 21.09375 5.078125 19.703125 5.078125 
C 14.703125 5.078125 11.296875 7.984375 11.296875 11.625 
C 11.296875 18.921875 26.90625 18.921875 30 18.921875 
z
" id="CMSS17-97"/>
      <path d="M 14.90625 21.296875 
C 14.90625 30.703125 21.796875 37 30.59375 37 
L 30.59375 43.578125 
C 24.203125 43.578125 18.203125 40.390625 14.59375 35.203125 
L 14.59375 43.09375 
L 7.5 43.09375 
L 7.5 0 
L 14.90625 0 
z
" id="CMSS17-114"/>
      <path d="M 44.5 43.875 
C 38.796875 43.875 33.90625 42.78125 29.90625 40.890625 
C 26.59375 43.390625 23.203125 43.875 20.90625 43.875 
C 12.203125 43.875 5.59375 36.703125 5.59375 28.34375 
C 5.59375 22.9375 8.59375 18.859375 8.796875 18.671875 
C 7 16.171875 6 13.484375 6 10.5 
C 6 7 7.40625 4.515625 8.5 3.125 
C 3.296875 -0.046875 2.59375 -4.90625 2.59375 -6.796875 
C 2.59375 -14.03125 11.703125 -20 23.40625 -20 
C 35.203125 -20 44.296875 -14.03125 44.296875 -6.6875 
C 44.296875 7 29 7 24.796875 7 
L 16.703125 7 
C 15.203125 7 11.203125 7 11.203125 12.359375 
C 11.203125 14.390625 12.09375 15.6875 12.203125 15.78125 
C 13.703125 14.6875 16.796875 13 20.90625 13 
C 29.203125 13 36.09375 19.96875 36.09375 28.546875 
C 36.09375 33.3125 33.90625 36.796875 33 38 
L 33.296875 38 
C 33.59375 38 37.796875 38 39.296875 38 
C 42.5 38 42.796875 37.953125 45.59375 37.796875 
z
M 20.90625 18.46875 
C 17.5 18.46875 12.703125 20.546875 12.703125 28.484375 
C 12.703125 37.109375 18.203125 38.5 20.796875 38.5 
C 24.203125 38.5 29 36.421875 29 28.484375 
C 29 19.859375 23.5 18.46875 20.90625 18.46875 
z
M 24.703125 -0.15625 
C 27.09375 -0.15625 37.203125 -0.15625 37.203125 -6.90625 
C 37.203125 -11.15625 31 -14.515625 23.5 -14.515625 
C 15.90625 -14.515625 9.703125 -11.25 9.703125 -6.796875 
C 9.703125 -6.296875 9.703125 -0.15625 16.59375 -0.15625 
z
" id="CMSS17-103"/>
      <path d="M 62.703125 43 
L 55.09375 43 
L 49.796875 25.015625 
C 48.703125 21.21875 45.59375 10.703125 45.203125 5.796875 
L 45.09375 5.796875 
C 44.90625 8.8125 43.203125 16 40.40625 25.515625 
L 35.296875 43 
L 28.40625 43 
L 23.40625 25.90625 
C 20.90625 17.203125 19 9.796875 18.796875 5.796875 
L 18.703125 5.796875 
C 18.296875 11.703125 14.203125 25.515625 13.59375 27.703125 
L 9.09375 43 
L 1.296875 43 
L 14.296875 0 
L 21.90625 0 
C 27.09375 17.125 31.09375 30.359375 31.40625 37.03125 
C 31.59375 33.75 33.296875 26.671875 34.296875 23.1875 
L 40.90625 0 
L 49.703125 0 
z
" id="CMSS17-119"/>
     </defs>
     <use transform="scale(0.996264)" xlink:href="#CMSS17-76"/>
     <use transform="translate(50.687105 0)scale(0.996264)" xlink:href="#CMSS17-105"/>
     <use transform="translate(72.867828 0)scale(0.996264)" xlink:href="#CMSS17-110"/>
     <use transform="translate(121.072772 0)scale(0.996264)" xlink:href="#CMSS17-101"/>
     <use transform="translate(162.711594 0)scale(0.996264)" xlink:href="#CMSS17-97"/>
     <use transform="translate(205.03106 0)scale(0.996264)" xlink:href="#CMSS17-114"/>
     <use transform="translate(268.169946 0)scale(0.996264)" xlink:href="#CMSS17-103"/>
     <use transform="translate(315.013569 0)scale(0.996264)" xlink:href="#CMSS17-114"/>
     <use transform="translate(346.923342 0)scale(0.996264)" xlink:href="#CMSS17-111"/>
     <use transform="translate(391.164511 0)scale(0.996264)" xlink:href="#CMSS17-119"/>
     <use transform="translate(454.984056 0)scale(0.996264)" xlink:href="#CMSS17-116"/>
     <use transform="translate(488.815623 0)scale(0.996264)" xlink:href="#CMSS17-104"/>
     <use transform="translate(568.249679 0)scale(0.996264)" xlink:href="#CMSS17-105"/>
     <use transform="translate(590.430402 0)scale(0.996264)" xlink:href="#CMSS17-110"/>
     <use transform="translate(669.864458 0)scale(0.996264)" xlink:href="#CMSS17-103"/>
     <use transform="translate(716.708081 0)scale(0.996264)" xlink:href="#CMSS17-97"/>
     <use transform="translate(761.630002 0)scale(0.996264)" xlink:href="#CMSS17-109"/>
     <use transform="translate(835.859256 0)scale(0.996264)" xlink:href="#CMSS17-101"/>
     <use transform="translate(908.727191 0)scale(0.996264)" xlink:href="#CMSS17-115"/>
     <use transform="translate(944.640733 0)scale(0.996264)" xlink:href="#CMSS17-105"/>
     <use transform="translate(966.821456 0)scale(0.996264)" xlink:href="#CMSS17-122"/>
     <use transform="translate(1007.499328 0)scale(0.996264)" xlink:href="#CMSS17-101"/>
    </g>
   </g>
  </g>
 </g>
 <defs>
  <clipPath id="pb08b4712cc">
   <rect height="253.622116" width="262.574834" x="77.985166" y="37.8933"/>
  </clipPath>
 </defs>
</svg>
